<?xml version="1.0" encoding="utf-8"?>
<!-- Generator: Adobe Illustrator 16.0.0, SVG Export Plug-In . SVG Version: 6.00 Build 0)  -->
<!DOCTYPE svg PUBLIC "-//W3C//DTD SVG 1.1//EN" "http://www.w3.org/Graphics/SVG/1.1/DTD/svg11.dtd">
<svg version="1.1" id="Layer_1" xmlns="http://www.w3.org/2000/svg" xmlns:xlink="http://www.w3.org/1999/xlink" x="0px" y="0px"
	 width="500px" height="500px" viewBox="0 0 500 500" enable-background="new 0 0 500 500" xml:space="preserve">
<g>
	<path fill-rule="evenodd" clip-rule="evenodd" fill="#EFEFEF" d="M498.808,249.85c0,56.049,0.087,112.098-0.028,168.146
		c-0.079,38.505-23.563,69.526-59.914,78.902c-7.062,1.822-14.561,2.718-21.86,2.729c-111.174,0.17-222.346,0.158-333.52,0.098
		c-46.703-0.025-82-34.69-82.116-81.532c-0.28-112.096-0.282-224.193,0-336.289C1.485,35.747,36.575,0.602,82.822,0.47
		c111.48-0.32,222.962-0.297,334.442-0.012c46.767,0.12,81.417,35.428,81.515,82.171C498.898,138.369,498.808,194.11,498.808,249.85
		z M336.171,239.054c29.348-14.091,39.649-37.581,38.343-68.167c-1.305-30.494-16.47-53.202-44.841-64.739
		c-25.287-10.284-52.012-11.816-78.725-12.24c-37.553-0.598-75.124,0.072-112.682-0.329c-8.385-0.09-10.921,2.204-10.894,10.828
		c0.307,97.291,0.191,194.583,0.219,291.875c0,3.241,0.313,6.481,0.512,10.356c4.398,0,7.748,0,11.098,0
		c39.409,0,78.823,0.366,118.225-0.17c17.155-0.232,34.443-1.272,51.39-3.816c22.836-3.429,44.169-11.414,59.872-29.569
		C405.341,330.708,389.704,264.7,336.171,239.054z"/>
	<path fill-rule="evenodd" clip-rule="evenodd" fill="#EFEFEF" d="M210.315,349.794c0-26.156,0-51.567,0-79.612
		c23.543,1.307,46.879,0.968,69.645,4.408c16.663,2.52,24.423,16.516,24.709,35.314c0.28,18.273-7.907,31.289-23.819,36.455
		c-6.352,2.062-13.17,3.438-19.826,3.671c-15.357,0.54-30.746,0.198-46.121,0.187C213.698,350.216,212.495,350.002,210.315,349.794z
		"/>
	<path fill-rule="evenodd" clip-rule="evenodd" fill="#EFEFEF" d="M210.378,213.383c0-21.058,0-40.965,0-61.022
		c19.652,0,39.055-1.587,58.059,0.484c16.195,1.766,24.352,15.041,23.404,31.396c-0.94,16.25-9.871,27.696-25.609,28.833
		C247.931,214.396,229.462,213.383,210.378,213.383z"/>
</g>
<g>
	<path fill-rule="evenodd" clip-rule="evenodd" fill="#EFEFEF" d="M499.954,249.85c0,56.049,0.087,112.098-0.028,168.146
		c-0.079,38.505-23.563,69.526-59.914,78.902c-7.062,1.822-14.561,2.718-21.86,2.729c-111.174,0.17-222.346,0.158-333.52,0.098
		c-46.703-0.025-82-34.69-82.116-81.532c-0.28-112.096-0.282-224.193,0-336.289C2.632,35.747,37.721,0.602,83.969,0.47
		c111.48-0.32,222.962-0.297,334.442-0.012c46.767,0.12,81.417,35.428,81.515,82.171C500.045,138.369,499.954,194.11,499.954,249.85
		z M337.317,239.054c29.348-14.091,39.649-37.581,38.343-68.167c-1.305-30.494-16.47-53.202-44.841-64.739
		c-25.287-10.284-52.012-11.816-78.725-12.24c-37.553-0.598-75.124,0.072-112.682-0.329c-8.385-0.09-10.921,2.204-10.894,10.828
		c0.307,97.291,0.191,194.583,0.219,291.875c0,3.241,0.313,6.481,0.512,10.356c4.398,0,7.748,0,11.098,0
		c39.409,0,78.823,0.366,118.225-0.17c17.155-0.232,34.443-1.272,51.39-3.816c22.836-3.429,44.169-11.414,59.872-29.569
		C406.487,330.708,390.851,264.7,337.317,239.054z"/>
	<path fill-rule="evenodd" clip-rule="evenodd" fill="#EFEFEF" d="M211.461,349.794c0-26.156,0-51.567,0-79.612
		c23.543,1.307,46.879,0.968,69.645,4.408c16.663,2.52,24.423,16.516,24.709,35.314c0.28,18.273-7.907,31.289-23.819,36.455
		c-6.352,2.062-13.17,3.438-19.826,3.671c-15.357,0.54-30.746,0.198-46.121,0.187C214.845,350.216,213.641,350.002,211.461,349.794z
		"/>
	<path fill-rule="evenodd" clip-rule="evenodd" fill="#EFEFEF" d="M211.524,213.383c0-21.058,0-40.965,0-61.022
		c19.652,0,39.055-1.587,58.059,0.484c16.195,1.766,24.352,15.041,23.404,31.396c-0.94,16.25-9.871,27.696-25.609,28.833
		C249.078,214.396,230.608,213.383,211.524,213.383z"/>
</g>
</svg>
