
<svg width="45px" height="72px" viewBox="0 0 45 72" version="1.1" xmlns="http://www.w3.org/2000/svg" xmlns:xlink="http://www.w3.org/1999/xlink">
    <!-- Generator: Sketch 49.3 (51167) - http://www.bohemiancoding.com/sketch -->
    <desc>Created with Sketch.</desc>
    <defs></defs>
    <g id="Welcome" stroke="none" stroke-width="1" fill="none" fill-rule="evenodd">
        <g id="Desktop-HD" transform="translate(-250.000000, -2284.000000)" fill="#0E1720" fill-rule="nonzero">
            <g id="E3" transform="translate(0.000000, 2048.000000)">
                <g id="bulb" transform="translate(250.000000, 236.000000)">
                    <path d="M31.5,58.5 C31.5,59.7436875 30.4936875,60.75 29.25,60.75 L15.75,60.75 C14.5063125,60.75 13.5,59.7436875 13.5,58.5 C13.5,57.2563125 14.5063125,56.25 15.75,56.25 L29.25,56.25 C30.4936875,56.25 31.5,57.2563125 31.5,58.5 Z M29.25,63 L15.75,63 C14.5063125,63 13.5,64.0063125 13.5,65.25 C13.5,66.4936875 14.5063125,67.5 15.75,67.5 C15.75,69.987375 17.7627656,72 20.25,72 L24.75,72 C27.237375,72 29.25,69.9872344 29.25,67.5 C30.4936875,67.5 31.5,66.4936875 31.5,65.25 C31.5,64.0063125 30.4936875,63 29.25,63 Z M22.5,4.5 C32.4272813,4.5 40.5,12.5772188 40.5,22.5 C40.5,28.9160156 37.1293594,34.7080781 31.4867813,37.9906875 L29.25,39.2914688 L29.25,41.8798125 L29.25,49.5 L15.75,49.5 L15.75,41.8798125 L15.75,39.2958281 L13.5132188,37.9906875 C7.86628125,34.7035781 4.5,28.9116563 4.5,22.5 C4.5,12.5772188 12.5772188,4.5 22.5,4.5 Z M22.5,0 C10.0722656,0 0,10.0722656 0,22.5 C0,30.8057344 4.55273438,37.9776094 11.25,41.8799531 L11.25,49.5 C11.25,51.987375 13.2627656,54 15.75,54 L29.25,54 C31.732875,54 33.75,51.9872344 33.75,49.5 L33.75,41.8798125 C40.4472656,37.9818281 45,30.8055938 45,22.4998594 C45,10.0722656 34.9277344,0 22.5,0 Z" id="Shape"></path>
                </g>
            </g>
        </g>
    </g>
</svg>