
<svg width="97px" height="70px" viewBox="0 0 97 70" version="1.1" xmlns="http://www.w3.org/2000/svg" xmlns:xlink="http://www.w3.org/1999/xlink">
    <!-- Generator: Sketch 49.3 (51167) - http://www.bohemiancoding.com/sketch -->
    <desc>Created with Sketch.</desc>
    <defs></defs>
    <g id="Welcome" stroke="none" stroke-width="1" fill="none" fill-rule="evenodd">
        <g id="Desktop-HD" transform="translate(-1120.000000, -2396.000000)" fill="#0E1720" fill-rule="nonzero">
            <g id="E3" transform="translate(0.000000, 2048.000000)">
                <g id="Code" transform="translate(971.000000, 348.000000)">
                    <g id="code" transform="translate(149.000000, 0.000000)">
                        <path d="M59.7748887,0.944195089 L56.543953,0.0774505641 C56.1280882,-0.0582572725 55.7184276,-0.0155807291 55.3200806,0.205123068 C54.9204562,0.426005429 54.6505729,0.757596814 54.5118905,1.19936153 L35.0791973,67.0155195 C34.9405149,67.4574628 34.9839444,67.8742287 35.2096683,68.2645673 C35.4353922,68.6556202 35.7735219,68.9190005 36.2256996,69.0547083 L39.4557229,69.92181 C39.8725001,70.0585892 40.2807009,70.0157341 40.6801428,69.7946732 C41.0797671,69.5727194 41.349103,69.2421994 41.487603,68.801149 L60.9208435,2.98391959 C61.0593435,2.54215487 61.0162789,2.12538896 60.7901901,1.73415755 C60.5642837,1.3431047 60.226519,1.07972436 59.7748887,0.944195089 Z" id="Shape"></path>
                        <path d="M31,13.8162934 C31,13.3750182 30.822209,12.9842203 30.4671866,12.6449699 L27.8036794,10.0986301 C27.4486571,9.75920138 27.0400922,9.5890411 26.5785445,9.5890411 C26.1169968,9.5890411 25.7082453,9.75937974 25.3534095,10.0986301 L0.532813374,33.8290333 C0.17723134,34.168462 0,34.5590815 0,35.0003567 C0,35.4416319 0.177791017,35.8322514 0.532813374,36.1715018 L25.353223,59.901905 C25.7080588,60.2418688 26.116064,60.4109589 26.5783579,60.4109589 C27.0406519,60.4109589 27.4486571,60.2413337 27.8034929,59.901905 L30.4670001,57.3569921 C30.8220224,57.0177417 30.9998134,56.6269438 30.9998134,56.1851335 C30.9998134,55.7443934 30.8220224,55.3537739 30.4670001,55.0145235 L9.53448639,35.0003567 L30.4671866,14.9876168 C30.8227687,14.6483665 31,14.2575686 31,13.8162934 Z" id="Shape"></path>
                        <path d="M96.4675245,33.8287781 L71.6447254,10.0986248 C71.2898661,9.75937795 70.8810877,9.5890411 70.4202557,9.5890411 C69.9579311,9.5890411 69.5506452,9.75937795 69.1944799,10.0986248 L66.5319158,12.6447594 C66.1770565,12.9841846 66,13.3742649 66,13.8160705 C66,14.2578762 66.1768699,14.6481348 66.5319158,14.9873816 L87.466375,35.0004459 L66.5319158,55.0145804 C66.1770565,55.3538272 66,55.7446209 66,56.185178 C66,56.627162 66.1768699,57.0177774 66.5319158,57.3570242 L69.1944799,59.9019103 C69.5506452,60.2418706 69.9581177,60.4109589 70.4202557,60.4109589 C70.8812742,60.4109589 71.2898661,60.2413355 71.6447254,59.9019103 L96.4675245,36.1719354 C96.8225704,35.8326886 97,35.4413597 97,35.0000892 C97,34.5586403 96.8225704,34.1680249 96.4675245,33.8287781 Z" id="Shape"></path>
                    </g>
                </g>
            </g>
        </g>
    </g>
</svg>