<?xml version="1.0" encoding="utf-8"?>
<!-- Generator: Adobe Illustrator 16.0.0, SVG Export Plug-In . SVG Version: 6.00 Build 0)  -->
<!DOCTYPE svg PUBLIC "-//W3C//DTD SVG 1.1//EN" "http://www.w3.org/Graphics/SVG/1.1/DTD/svg11.dtd">
<svg version="1.1" id="Layer_1" xmlns="http://www.w3.org/2000/svg" xmlns:xlink="http://www.w3.org/1999/xlink" x="0px" y="0px"
	 width="500px" height="500px" viewBox="0 0 500 500" enable-background="new 0 0 500 500" xml:space="preserve">
<g>
	<path fill="#E2E2E2" d="M252.93,500.977c-1.302,0-2.604,0-3.906,0c-1.297-1.462-3.219-1.398-4.872-1.852
		c-55.28-15.146-110.566-30.271-165.889-45.26c-3.626-0.982-5.23-2.361-5.557-6.372c-1.916-23.501-4.176-46.974-6.31-70.457
		c-2.752-30.286-5.485-60.574-8.242-90.86c-2.771-30.447-5.576-60.891-8.339-91.339c-2.749-30.285-5.45-60.575-8.198-90.861
		c-3.114-34.334-6.259-68.666-9.39-102.999c145.833,0,291.667,0,437.5,0c-2.725,30.288-5.436,60.577-8.178,90.864
		c-2.802,30.934-5.64,61.866-8.45,92.8c-2.723,29.962-5.421,59.927-8.147,89.888c-2.8,30.772-5.625,61.542-8.432,92.312
		c-2.451,26.886-4.988,53.763-7.233,80.665c-0.333,4.005-1.962,5.383-5.588,6.362c-44.677,12.062-89.335,24.197-133.938,36.527
		C277.452,493.797,264.921,496.459,252.93,500.977z M250.922,407.263c0.019,17.573,0.028,35.146,0.064,52.72
		c0.012,5.843,0.04,5.788,5.774,4.087c27.91-8.281,55.836-16.509,83.747-24.787c16.685-4.947,33.355-9.943,50.025-14.943
		c2.323-0.696,4.658-1.225,4.972-4.477c1.877-19.556,3.919-39.096,5.83-58.647c1.771-18.099,3.396-36.211,5.177-54.309
		c1.797-18.257,3.774-36.497,5.553-54.756c2.106-21.654,4.002-43.328,6.139-64.979c2.759-27.951,5.725-55.882,8.488-83.833
		c2.124-21.489,4.03-42.999,6.127-64.49c0.643-6.598,0.782-6.613-5.605-6.614c-56.626-0.008-113.252,0.046-169.878-0.097
		c-4.827-0.012-6.53,1.254-6.461,6.295c0.256,18.708,0.082,37.424,0.071,56.136c-1.95,0.052-3.899,0.15-5.848,0.151
		c-40.187,0.009-80.374,0.048-120.561-0.065c-3.478-0.01-4.869,0.526-4.442,4.455c1.929,17.777,3.655,35.577,5.264,53.387
		c0.345,3.813,1.645,4.872,5.628,4.851c37.583-0.202,75.167-0.123,112.75-0.11c1.618,0,3.236,0.135,6.17,0.265
		c-2.394,0.953-3.43,1.375-4.472,1.777c-37.09,14.315-74.163,28.675-111.302,42.862c-3.285,1.256-4.436,2.664-4.062,6.281
		c1.784,17.302,3.439,34.623,4.749,51.967c0.363,4.809,1.66,6.385,6.802,6.354c36.44-0.212,72.882-0.036,109.324,0.018
		c0.011,23.854,0.028,47.707,0.022,71.56c0,1.92,0.298,3.937-1.175,5.56c-15.145-4.776-30.271-9.614-45.453-14.272
		c-2.71-0.833-2.754-2.835-3.096-4.858c-1.299-7.681-2.781-15.34-3.731-23.064c-0.394-3.206-1.571-3.918-4.563-3.895
		c-16.418,0.131-32.842,0.26-49.255-0.064c-4.588-0.092-5.328,1.319-4.901,5.442c2.009,19.389,3.759,38.805,5.615,58.209
		c0.448,4.68-0.542,10.42,1.831,13.741c2.539,3.554,8.747,3.386,13.368,4.777C190.034,389.055,220.481,398.147,250.922,407.263z"/>
	<path fill-rule="evenodd" clip-rule="evenodd" fill="#EFEFEF" d="M250.922,407.263c32.666-9.779,65.305-19.655,98.029-29.236
		c5.05-1.479,7.476-3.149,7.943-9.187c2.754-35.498,6.176-70.944,9.378-106.407c1.608-17.812,3.125-35.635,4.925-53.429
		c0.421-4.156-0.777-5.131-4.865-5.112c-35.631,0.161-71.263,0.093-106.894,0.093c-1.702,0-3.403,0-5.416,0
		c1.216-2.089,3.015-2.12,4.435-2.654c37.546-14.116,75.095-28.225,112.712-42.15c3.537-1.31,5.073-2.988,5.38-6.811
		c1.461-18.15,3.134-36.285,4.946-54.403c0.341-3.41-1.368-3.262-3.652-3.257c-16.108,0.033-32.216,0.035-48.323,0.012
		c-26.191-0.037-52.383-0.101-78.576-0.153c0.012-18.712,0.186-37.428-0.07-56.136c-0.069-5.041,1.634-6.307,6.461-6.295
		c56.626,0.144,113.252,0.089,169.878,0.097c6.388,0.001,6.248,0.016,5.605,6.614c-2.097,21.491-4.003,43.001-6.127,64.49
		c-2.764,27.951-5.729,55.881-8.488,83.833c-2.137,21.651-4.032,43.325-6.139,64.979c-1.778,18.259-3.756,36.499-5.553,54.756
		c-1.781,18.098-3.406,36.21-5.177,54.309c-1.911,19.552-3.953,39.092-5.83,58.647c-0.313,3.252-2.648,3.78-4.972,4.477
		c-16.67,5-33.341,9.996-50.025,14.943c-27.911,8.278-55.837,16.506-83.747,24.787c-5.734,1.701-5.763,1.756-5.774-4.087
		C250.95,442.409,250.941,424.836,250.922,407.263z"/>
	<path fill-rule="evenodd" clip-rule="evenodd" fill="#EFEFEF" d="M250.945,266.76c17.201-0.052,34.402-0.053,51.602-0.205
		c2.784-0.023,3.144,1.078,2.927,3.486c-1.672,18.578-3.253,37.164-4.812,55.751c-0.163,1.939-0.619,3.411-2.707,4.059
		c-15.473,4.796-30.929,9.643-46.406,14.422c-0.496,0.153-1.166-0.25-1.755-0.394c1.472-1.623,1.174-3.64,1.174-5.56
		C250.973,314.467,250.956,290.613,250.945,266.76z"/>
</g>
</svg>
