<?xml version="1.0" encoding="utf-8"?>
<!-- Generator: Adobe Illustrator 16.0.0, SVG Export Plug-In . SVG Version: 6.00 Build 0)  -->
<!DOCTYPE svg PUBLIC "-//W3C//DTD SVG 1.1//EN" "http://www.w3.org/Graphics/SVG/1.1/DTD/svg11.dtd">
<svg version="1.1" id="Layer_1" xmlns="http://www.w3.org/2000/svg" xmlns:xlink="http://www.w3.org/1999/xlink" x="0px" y="0px"
	 width="500px" height="500px" viewBox="0 0 500 500" enable-background="new 0 0 500 500" xml:space="preserve">
<g>
	<path fill-rule="evenodd" clip-rule="evenodd" fill="#EFEFEF" d="M253.574-1c12.059,2.483,19.953,10.929,28.172,19.18
		c69.024,69.289,138.133,138.495,207.29,207.653c10.24,10.241,14.072,21.918,9.447,35.907c-1.708,5.167-4.966,9.366-8.776,13.182
		c-71.814,71.92-143.642,143.825-215.386,215.815c-5.076,5.094-11.315,7.738-17.747,10.264c-4.333,0-8.667,0-13,0
		c-11.976-4.05-19.792-13.462-28.292-21.978C150.451,414.081,85.633,349.127,20.803,284.186C12.409,275.776,3.188,268.003-0.426,256
		c0-4,0-8,0-12c2.534-6.262,4.896-12.519,9.886-17.504c49.038-48.996,98.005-98.062,146.918-147.182
		c2.12-2.128,3.165-2.302,5.377-0.057c17.077,17.328,34.275,34.536,51.542,51.674c1.948,1.934,2.158,3.481,1.391,6.059
		c-5.402,18.138,1.919,36.178,18.4,45.097c2.803,1.517,3.606,3.099,3.599,6.125c-0.097,43.158-0.09,86.317-0.012,129.475
		c0.005,2.799-0.758,4.266-3.363,5.713c-13.528,7.516-20.574,19.271-20.403,34.71c0.2,18.041,13.716,33.772,30.851,36.845
		c18.691,3.352,36.315-6.316,43.125-23.656c6.76-17.215,0.645-36.24-15.136-46.349c-2.558-1.638-3.524-3.289-3.517-6.332
		c0.104-42.491,0.063-84.983,0.104-127.475c0.001-1.181-0.667-2.637,0.79-3.63c15.963,15.897,31.88,31.75,47.796,47.604
		c0.473,0.47,0.9,0.993,1.416,1.409c1.623,1.309,1.225,2.749,0.649,4.473c-2.157,6.462-2.447,13.137-1.056,19.741
		c4.354,20.669,24.914,34.152,45.079,29.757c21.052-4.589,34.527-24.936,30.025-45.337c-4.759-21.563-25.067-34.657-46.316-29.597
		c-3.102,0.738-4.876-0.015-6.94-2.101c-16.41-16.581-32.895-33.089-49.417-49.559c-1.891-1.885-2.68-3.429-2.016-6.42
		c6.346-28.586-17.321-52.435-45.923-46.36c-2.579,0.548-4.158,0.293-6.051-1.621c-17.343-17.533-34.746-35.009-52.294-52.335
		c-2.459-2.428-2.01-3.596,0.159-5.727c10.342-10.158,20.572-20.432,30.752-30.753C223.697,11.86,231.853,2.329,244.574-1
		C247.574-1,250.574-1,253.574-1z"/>
</g>
</svg>
