<?xml version="1.0" encoding="utf-8"?>
<!-- Generator: Adobe Illustrator 16.0.0, SVG Export Plug-In . SVG Version: 6.00 Build 0)  -->
<!DOCTYPE svg PUBLIC "-//W3C//DTD SVG 1.1//EN" "http://www.w3.org/Graphics/SVG/1.1/DTD/svg11.dtd">
<svg version="1.1" id="Layer_1" xmlns="http://www.w3.org/2000/svg" xmlns:xlink="http://www.w3.org/1999/xlink" x="0px" y="0px"
	 width="500px" height="500px" viewBox="0 0 500 500" enable-background="new 0 0 500 500" xml:space="preserve">
<g>
	<path fill-rule="evenodd" clip-rule="evenodd" fill="#E2E2E2" d="M249.12,502.912c-7.094-2.52-14.429-4.206-21.67-6.213
		c-52.185-14.471-104.383-28.893-156.593-43.276c-1.65-0.456-2.076-1.195-2.216-2.83c-1.435-16.782-2.991-33.555-4.483-50.332
		c-1.3-14.617-2.543-29.239-3.846-43.854c-1.481-16.605-3.018-33.204-4.5-49.809c-1.297-14.529-2.537-29.064-3.832-43.595
		c-1.48-16.604-3.009-33.205-4.49-49.81c-1.304-14.615-2.555-29.237-3.856-43.853c-1.302-14.615-2.65-29.228-3.957-43.843
		c-1.121-12.541-2.203-25.083-3.32-37.625c-1.309-14.702-2.645-29.402-3.955-44.104C31.276,31.142,30.14,18.516,29.09,5.883
		c-0.149-1.79-1.312-4.132-0.208-5.236c1.191-1.19,3.63-0.375,5.518-0.375c144.604-0.018,289.21-0.016,433.814-0.016
		c3.641,0,3.551-0.008,3.233,3.496c-1.315,14.528-2.559,29.062-3.853,43.592c-1.303,14.615-2.645,29.228-3.953,43.843
		c-1.122,12.541-2.215,25.083-3.333,37.624c-1.311,14.701-2.639,29.403-3.954,44.104c-1.114,12.454-2.216,24.909-3.33,37.362
		c-1.33,14.875-2.673,29.749-3.996,44.624c-1.117,12.54-2.207,25.085-3.326,37.624c-1.312,14.701-2.647,29.402-3.961,44.104
		c-1.12,12.539-2.217,25.083-3.336,37.622c-1.312,14.703-2.638,29.403-3.949,44.104c-0.949,10.638-1.951,21.271-2.77,31.92
		c-0.153,1.998-0.821,2.728-2.728,3.25c-59.068,16.233-118.118,32.54-177.173,48.826c-0.417,0.115-0.859,0.126-1.103,0.561
		C250.163,502.912,249.641,502.912,249.12,502.912z M250.324,349.37c-0.453-0.062-0.905-0.12-1.357-0.181
		c-0.345-0.036-0.702-0.023-1.033-0.111c-19.413-5.229-38.822-10.471-58.238-15.686c-1.156-0.309-1.615-0.845-1.722-2.111
		c-1.142-13.409-2.4-26.806-3.524-40.217c-0.15-1.791-0.501-2.509-2.529-2.496c-17.029,0.092-34.058,0.077-51.087,0.012
		c-1.775-0.006-2.385,0.313-2.199,2.251c1.025,10.716,1.904,21.445,2.86,32.168c1.488,16.688,3.039,33.374,4.449,50.069
		c0.164,1.945,0.687,2.761,2.672,3.305c37.198,10.165,74.367,20.432,111.543,30.676c0.002,18.16,0.003,36.32,0.005,54.48
		c0,0.695-0.006,1.391,0.015,2.086c0.032,1.093,0.594,1.351,1.551,0.949c0.56-0.234,1.103-0.531,1.682-0.693
		c23.734-6.6,47.466-13.207,71.21-19.771c23.077-6.38,46.16-12.739,69.262-19.032c2.464-0.67,3.302-2.071,3.354-4.456
		c0.062-2.936,0.31-5.869,0.567-8.794c0.643-7.303,1.351-14.598,2.003-21.899c0.406-4.556,0.72-9.121,1.145-13.676
		c0.631-6.782,1.354-13.555,1.978-20.337c0.427-4.642,0.72-9.295,1.123-13.938c0.65-7.476,1.351-14.945,2.014-22.419
		c0.392-4.385,0.729-8.774,1.135-13.157c0.646-6.955,1.357-13.901,1.987-20.855c0.42-4.644,0.711-9.298,1.12-13.941
		c0.646-7.301,1.359-14.596,2.012-21.896c0.408-4.558,0.607-9.138,1.164-13.674c0.872-7.11,1.352-14.25,1.968-21.382
		c0.396-4.557,0.738-9.12,1.15-13.676c0.64-7.042,1.34-14.077,1.975-21.118c0.41-4.556,0.725-9.122,1.132-13.678
		c0.646-7.215,1.346-14.424,2-21.637c0.403-4.471,0.738-8.947,1.146-13.417c0.644-7.041,1.35-14.076,1.977-21.118
		c0.421-4.729,0.716-9.47,1.135-14.199c0.638-7.215,1.346-14.424,1.999-21.638c0.403-4.469,0.731-8.946,1.146-13.416
		c0.638-6.868,1.282-13.735,2.009-20.594c0.243-2.29-0.533-2.928-2.861-2.926c-58.392,0.066-116.782,0.069-175.174-0.006
		c-2.522-0.003-2.978,0.834-2.966,3.111c0.08,17.552,0.041,35.104,0.039,52.657c-1.04,0.032-2.081,0.093-3.121,0.093
		c-44.227,0.004-88.454,0.004-132.683,0.004c-0.607,0-1.224,0.062-1.823-0.013c-1.364-0.17-1.558,0.457-1.442,1.667
		c0.73,7.606,1.393,15.217,2.079,22.827c2.369,26.288,4.76,52.573,7.103,78.864c1.833,20.583,3.626,41.169,5.377,61.759
		c0.175,2.05,0.689,2.842,3.043,2.836c39.448-0.098,78.896-0.07,118.345-0.066c1.04,0.001,2.081,0.062,3.121,0.095
		c0.002,28.232,0.002,56.468,0.012,84.7c0.001,1.208-0.168,2.438,0.271,3.616H250.324z"/>
	<path fill-rule="evenodd" clip-rule="evenodd" fill="#EFEFEF" d="M250.158,148.425c1.042-0.027,2.081-0.079,3.122-0.079
		c42.656-0.004,85.312-0.018,127.966,0.038c2.09,0.003,2.87-0.295,3.069-2.708c1.348-16.436,2.937-32.852,4.446-49.274
		c0.308-3.33,0.308-3.33-3.085-3.33c-44.133,0-88.265,0-132.396-0.004c-1.041,0-2.082-0.051-3.123-0.079
		c0.002-17.553,0.041-35.105-0.039-52.657c-0.012-2.277,0.444-3.115,2.966-3.111c58.392,0.075,116.782,0.072,175.174,0.006
		c2.328-0.002,3.104,0.636,2.861,2.926c-0.727,6.859-1.371,13.727-2.009,20.594c-0.414,4.469-0.742,8.946-1.146,13.416
		c-0.653,7.214-1.361,14.423-1.999,21.638c-0.419,4.729-0.714,9.47-1.135,14.199c-0.627,7.042-1.333,14.078-1.977,21.118
		c-0.408,4.469-0.743,8.946-1.146,13.417c-0.654,7.213-1.354,14.422-2,21.637c-0.407,4.557-0.722,9.122-1.132,13.678
		c-0.635,7.041-1.335,14.077-1.975,21.118c-0.412,4.557-0.755,9.119-1.15,13.676c-0.616,7.131-1.096,14.272-1.968,21.382
		c-0.557,4.537-0.756,9.117-1.164,13.674c-0.652,7.3-1.365,14.595-2.012,21.896c-0.409,4.644-0.7,9.298-1.12,13.941
		c-0.63,6.954-1.342,13.9-1.987,20.855c-0.406,4.383-0.743,8.772-1.135,13.157c-0.663,7.474-1.363,14.943-2.014,22.419
		c-0.403,4.644-0.696,9.297-1.123,13.938c-0.623,6.782-1.347,13.555-1.978,20.337c-0.425,4.555-0.738,9.12-1.145,13.676
		c-0.652,7.302-1.36,14.597-2.003,21.899c-0.258,2.925-0.505,5.858-0.567,8.794c-0.053,2.385-0.891,3.786-3.354,4.456
		c-23.102,6.293-46.185,12.652-69.262,19.032c-23.744,6.563-47.476,13.171-71.21,19.771c-0.579,0.162-1.122,0.459-1.682,0.693
		c-0.957,0.401-1.519,0.144-1.551-0.949c-0.021-0.695-0.015-1.391-0.015-2.086c-0.002-18.16-0.003-36.32-0.005-54.48
		c37.162-10.264,74.321-20.544,111.5-30.749c1.626-0.445,2.144-1.082,2.287-2.744c1.84-21.364,3.757-42.722,5.681-64.077
		c2.011-22.31,4.056-44.612,6.075-66.92c1.056-11.673,2.016-23.355,3.193-35.014c0.245-2.426-0.838-2.391-2.578-2.39
		c-41.013,0.03-82.024,0.023-123.037,0.019c-1.041,0-2.08-0.051-3.122-0.079C250.158,186.205,250.158,167.314,250.158,148.425z"/>
	<path fill-rule="evenodd" clip-rule="evenodd" fill="#EFEFEF" d="M250.157,261.054c13.555-0.028,27.109-0.062,40.664-0.081
		c7.474-0.012,14.947-0.002,22.421-0.002c5.101,0,5.096-0.001,4.633,5.18c-1.906,21.274-3.845,42.544-5.668,63.824
		c-0.194,2.279-1.03,3.183-3.248,3.767c-19.527,5.127-39.018,10.398-58.518,15.629c-0.439-1.179-0.27-2.408-0.271-3.616
		C250.159,317.521,250.159,289.286,250.157,261.054z"/>
	<path fill-rule="evenodd" clip-rule="evenodd" fill="#F1662A" d="M250.324,349.37c-0.505,0.336-0.956,0.265-1.357-0.181
		C249.419,349.25,249.871,349.309,250.324,349.37z"/>
	<path fill-rule="evenodd" clip-rule="evenodd" fill="#E2E2E2" d="M250.158,148.425c0,18.89,0,37.78,0,56.67
		c-11.634,0.033-23.267,0.078-34.899,0.093c-12.07,0.017-24.14-0.042-36.209,0.052c-1.908,0.014-2.389-0.476-2.55-2.397
		c-1.449-17.292-3.007-34.576-4.638-51.852c-0.204-2.162,0.252-2.728,2.499-2.719c24.487,0.089,48.975,0.056,73.461,0.061
		C248.6,148.332,249.378,148.392,250.158,148.425z"/>
</g>
</svg>
