<?xml version="1.0" encoding="utf-8"?>
<!-- Generator: Adobe Illustrator 16.0.0, SVG Export Plug-In . SVG Version: 6.00 Build 0)  -->
<!DOCTYPE svg PUBLIC "-//W3C//DTD SVG 1.1//EN" "http://www.w3.org/Graphics/SVG/1.1/DTD/svg11.dtd">
<svg version="1.1" id="Layer_1" xmlns="http://www.w3.org/2000/svg" xmlns:xlink="http://www.w3.org/1999/xlink" x="0px" y="0px"
	 width="500px" height="500px" viewBox="0 0 500 500" enable-background="new 0 0 500 500" xml:space="preserve">
<g>
	<path fill-rule="evenodd" clip-rule="evenodd" fill="#EFEFEF" d="M292.793,0c-8.112,42.42,2.068,79.378,33.387,109.687
		c17.104,16.552,36.942,28.973,59.838,35.944c29.692,9.041,58.393,5.504,86.186-7.624c0.952-0.451,1.924-0.865,2.895-1.274
		c0.102-0.043,0.265,0.062,0.875,0.229c-3.465,6.324-8.073,11.607-13.109,16.441c-16.062,15.422-35.635,22.541-57.604,23.444
		c-27.918,1.147-54.527-3.894-77.955-19.763c-30.242-20.483-49.271-49.066-55.916-84.983c-4.668-25.241,3.393-47.886,18.157-68.375
		c0.852-1.183,2.252-2.054,2.336-3.726C292.185,0,292.489,0,292.793,0z"/>
	<path fill-rule="evenodd" clip-rule="evenodd" fill="#EFEFEF" d="M485.058,347.613c-0.262,2.953-1.627,4.799-2.664,6.721
		c-29.7,55.087-75.438,90.439-134.823,108.46c-33.431,10.144-67.742,11.187-102.324,7.654
		c-66.942-6.836-122.528-36.61-168.722-84.496C39.49,347.56,14.514,302.338,4.447,249.615c-9.217-48.271-4.859-94.779,20.166-138.16
		c7.386-12.806,16.17-24.568,26.352-35.287c1.438-1.514,1.446-1.506,4.588-2.728c-1.585,8.606-3.311,16.93-4.634,25.318
		c-8.369,52.993-4.804,104.571,18.603,153.721c13.822,29.025,33.216,53.919,56.871,75.501
		c30.045,27.411,63.606,49.639,101.193,65.229c32.937,13.664,67.632,18.734,103.201,17.864c34.222-0.839,67.007-7.988,97.947-22.91
		c20.268-9.774,38.297-22.724,54.258-38.571C483.512,349.075,484.054,348.574,485.058,347.613z"/>
	<path fill-rule="evenodd" clip-rule="evenodd" fill="#EFEFEF" d="M500,217.924c-5.89,14.448-12.867,26.739-21.78,37.909
		c-23.99,30.074-55.938,47.161-92.909,54.751c-66.896,13.731-125.845-2.618-176.14-49.1c-25.516-23.582-45.376-51.049-55.12-84.762
		c-10.277-35.56-11.221-71.138,3.035-106.091c6.128-15.023,15.162-28.291,25.629-40.614c0.365-0.43,0.852-0.756,1.861-1.635
		c-1.718,9.945-3.278,19.178-4.216,28.505c-6.82,67.851,14.844,123.901,69.271,166.085c24.372,18.89,50.931,34.136,80.85,42.371
		c53.421,14.707,102.991,6.923,147.656-26.966C485.764,232.592,492.364,225.679,500,217.924z"/>
</g>
</svg>
