<?xml version="1.0" encoding="utf-8"?>
<!-- Generator: Adobe Illustrator 16.0.0, SVG Export Plug-In . SVG Version: 6.00 Build 0)  -->
<!DOCTYPE svg PUBLIC "-//W3C//DTD SVG 1.1//EN" "http://www.w3.org/Graphics/SVG/1.1/DTD/svg11.dtd">
<svg version="1.1" xmlns="http://www.w3.org/2000/svg" xmlns:xlink="http://www.w3.org/1999/xlink" x="0px" y="0px" width="500px"
	 height="500px" viewBox="0 0 500 500" enable-background="new 0 0 500 500" xml:space="preserve">
<g id="Layer_1">
	<path fill="#FFFFFF" d="M272.124,360.983c-2.294,1.738-5.209,1.591-7.477,3.091c-1.458,0.964-2.388,2.807-2.895,4.759
		c2.91,0.812,4.998,3.988,3.064,7.19c-0.446,0.739-0.949,1.571-1.504,2.469c0.648,0.03,1.24,0.199,1.775,0.459
		c1.562-0.096,3.114,0.689,4.181,1.892c1.634-0.402,3.269-0.789,4.901-1.164c0.259-0.06,0.518-0.096,0.775-0.112
		c-0.446-7.49,0.212-14.877,1.305-22.222C274.958,358.647,273.59,359.873,272.124,360.983z"/>
	<path fill="#EFEFEF" d="M249.984,0C111.921,0,0,111.922,0,249.985C0,388.048,111.921,499.97,249.984,499.97
		c138.062,0,249.984-111.922,249.984-249.984C499.969,111.922,388.047,0,249.984,0z M308.198,319.723
		c-1.339,15.484,0.848,31.012-0.959,46.547c-1.246,10.718-1.688,23.638-7.697,32.991c-6.931,10.789-18.901,13.663-31.129,13.556
		c-10.089-0.089-22.651,0.023-31.124-6.312c-3.917-2.929-6.789-7.191-8.077-11.925c-0.972-3.57-2.466-9.201-1.211-12.918
		c1.177-3.485,3.821-4.183,6.903-5.462c1.153-0.479,2.247-1.097,3.304-1.796c2.375-2.186,4.939-4.152,7.49-6.184
		c1.239-1.086,2.486-2.131,3.778-3.038c0.994-0.698,2.038-0.901,3.023-0.76c1.619-4.882,5.099-8.909,10.7-10.45
		c7.276-2.002,12.104-10.872,15.889-16.939c0.354-0.566,0.701-1.135,1.053-1.702c0.485-2.795,0.935-5.593,1.31-8.397
		c-1.894,0.161-3.922-0.635-4.769-2.41c-2.811-5.896-0.104-9.01,3.242-12.132c-1.18-4.234-3.174-10.363-0.401-14.136
		c-1.312-0.113-2.607-0.237-3.853-0.435c-4.667-0.74-4.366-6.978-1.194-9.139c0.887-0.604,1.755-1.205,2.615-1.8
		c-3.288-2.791-2.342-8.879,2.908-8.883c3.899-0.003,8.71-0.193,13.311,0.378c1.474-0.376,3.012-0.646,4.64-0.781
		c1.488-0.672,2.987-1.479,4.526-2.414c5.494-3.341,10.486,5.192,5.133,8.576c0.296,1.195,0.509,2.412,0.627,3.649
		C313.22,296.978,309.083,309.505,308.198,319.723z M391.023,404.317c-1.827,1.159-3.66,0.908-5.054-0.053
		c-0.349,0.229-0.723,0.429-1.141,0.557c-7.267,2.233-14.777,2.572-22.236,1.671c-4.823,0.478-9.645,0.639-14.431,0.052
		c-5.297-0.65-10.946-1.628-14.831-5.665c-3.608-3.75-5.625-8.383-8.148-12.855c-0.021-0.036-0.032-0.073-0.052-0.109
		c-1.356-0.119-2.69-0.313-3.96-0.593c-3.872-0.851-4.403-5.123-2.568-7.745c-0.259-1.931,0.462-3.979,2.374-4.894
		c0.835-0.399,1.681-0.771,2.526-1.143c0.275-0.743,0.489-1.527,0.676-2.369c0.951-4.299,6.741-4.492,8.96-1.638
		c0.278-0.118,0.56-0.23,0.838-0.351c0.491-0.212,0.978-0.344,1.452-0.415c0.792-0.644,1.825-1.104,3.071-1.268
		c4.136-0.544,7.521,1.81,9.886,4.996c0.551,0.742,1.045,1.515,1.526,2.296c2.799-0.531,5.997,1.185,6.209,4.06
		c3.178-2.552,7.203-0.795,8.116,2.351c0.076-0.078,0.151-0.159,0.228-0.237c1.771-1.809,4.075-1.812,5.837-0.795
		c2.097-1.53,4.177-3.088,6.297-4.553c-0.182-0.38-0.328-0.805-0.42-1.288c-0.027-0.146-0.049-0.293-0.076-0.438
		c-2.133-3.158-2.54-7.133-2.409-11.03c-2.194,0.68-3.866-0.044-4.855-1.37c-2.893-0.012-4.599-2.322-4.711-4.749
		c-2.206-0.587-4.308-1.539-6.15-2.924c-0.629-0.473-1.201-1.046-1.644-1.689c-1.782-0.091-3.549-0.361-5.24-0.812
		c-1.839-0.068-3.667-0.381-5.422-0.994c-1.531-0.535-2.856-1.732-3.424-3.215c-2.595-0.873-4.837-2.372-6.481-4.698
		c-1.088,0.045-2.176,0.08-3.266,0.092c-3.205,0.035-5.334-3.239-4.953-6.038c-1.363-1.839-1.426-4.487,0.329-6.393
		c-0.021-0.018-0.04-0.036-0.06-0.055c-0.271-0.002-0.543-0.003-0.816-0.015c-3.935-0.166-7.175-5.6-3.535-8.535
		c1.041-0.84,2.092-1.666,3.142-2.491c-0.357-0.508-0.638-1.076-0.826-1.669c-1.532-0.134-3.068-0.435-4.609-0.983
		c-2.421-0.862-4.449-3.442-3.492-6.15c0.73-2.069,1.772-3.889,3.019-5.535c-0.744-1.944-0.268-4.191,2.279-5.453
		c2.858-1.416,5.737-2.792,8.615-4.169c-4.123-1.635-2.672-7.854,1.079-9.335c11.416-4.511,23.554-6.44,35.5-9
		c3.619-0.775,5.955,1.805,6.157,4.547c0.89-0.083,1.778-0.167,2.672-0.226c2.677-0.174,4.297,1.655,4.731,3.793
		c0.082-0.036,0.163-0.074,0.245-0.11c3.523-1.56,6.662,0.646,7.349,3.416c0.227-0.029,0.446-0.073,0.675-0.099
		c3.43-0.384,5.183,2.905,4.774,5.807c1.721-0.344,3.457-0.63,5.226-0.807c3.282-0.328,5.629,3.433,4.821,6.329
		c-1.978,7.094-8.072,8.266-13.472,10.682c0.687,1.2,0.942,2.647,0.472,3.818c-1.608,4.006-4.059,7.659-8.901,7.331
		c-4.043-0.273-6.553-3.618-10.664-3.531c-5.981,0.127-12.113,1.685-18.097,1.901c3.131,3.117,7.877,5.218,11.399,6.522
		c7.08,2.62,14.781,4.425,21.324,8.302C412.119,349.306,417.295,387.643,391.023,404.317z"/>
</g>
<g id="Layer_2">
	<g>
		<path fill="#EFEFEF" d="M162.687,425.295c0-87.534,0-175.071,0-262.607c87.537,0,175.073,0,262.61,0c0,87.537,0,175.073,0,262.607
			C337.76,425.295,250.224,425.295,162.687,425.295z M318.668,379.289c0.263,0.529,0.434,0.904,0.631,1.265
			c4.52,8.233,10.973,14.455,19.397,18.612c6.856,3.382,14.159,4.937,21.761,5.284c7.812,0.357,15.449-0.488,22.768-3.356
			c7.91-3.099,14.166-8.126,17.962-15.894c2.737-5.602,3.469-11.568,3.171-17.722c-0.45-9.281-3.832-17.185-10.872-23.408
			c-5.457-4.824-11.82-8.148-18.387-11.129c-5.068-2.301-10.233-4.397-15.229-6.844c-2.318-1.135-4.545-2.652-6.451-4.394
			c-4.691-4.284-4.608-15.048,4.571-17.735c2.905-0.851,5.838-0.748,8.751-0.061c4.128,0.974,7.021,3.635,9.357,7.011
			c0.655,0.946,1.258,1.929,1.94,2.98c6.428-4.128,12.773-8.204,19.187-12.323c-4.112-7.212-9.325-13.107-16.957-16.327
			c-10.447-4.407-21.191-4.619-31.95-1.276c-7.929,2.462-14.14,7.283-18.266,14.583c-3.318,5.87-4.315,12.227-3.903,18.893
			c0.556,9.04,3.9,16.751,10.656,22.89c5.146,4.679,11.206,7.854,17.497,10.654c5.503,2.45,11.043,4.826,16.449,7.472
			c2.129,1.041,4.13,2.528,5.857,4.163c2.929,2.769,3.617,6.407,2.795,10.239c-0.973,4.526-4.169,7.208-8.367,8.434
			c-10.177,2.97-19.361,1.209-26.909-6.61c-2.007-2.079-3.645-4.511-5.562-6.916C332.052,371.544,325.41,375.388,318.668,379.289z
			 M280.675,283.28c0,0.713,0,1.288,0,1.865c0,26.909,0.01,53.818-0.021,80.728c-0.003,2.196-0.12,4.417-0.461,6.582
			c-0.679,4.312-2.553,7.826-7.074,9.24c-2.712,0.847-5.498,0.92-8.271,0.515c-4.197-0.611-7.151-3.167-9.486-6.514
			c-1.305-1.867-2.461-3.839-3.76-5.883c-6.671,4.035-13.335,8.069-20.056,12.136c4.319,8.968,10.631,15.755,19.86,19.394
			c10.901,4.299,22.017,4.364,33.057,0.587c9.199-3.148,15.28-9.596,18.501-18.748c1.885-5.363,2.424-10.931,2.425-16.569
			c0.009-27.284,0.005-54.568,0.002-81.852c0-0.482-0.049-0.966-0.076-1.48C297.075,283.28,288.978,283.28,280.675,283.28z"/>
	</g>
</g>
</svg>
