<?xml version="1.0" encoding="utf-8"?>
<!-- Generator: Adobe Illustrator 16.0.0, SVG Export Plug-In . SVG Version: 6.00 Build 0)  -->
<!DOCTYPE svg PUBLIC "-//W3C//DTD SVG 1.1//EN" "http://www.w3.org/Graphics/SVG/1.1/DTD/svg11.dtd">
<svg version="1.1" id="Layer_1" xmlns="http://www.w3.org/2000/svg" xmlns:xlink="http://www.w3.org/1999/xlink" x="0px" y="0px"
	 width="1000px" height="1000px" viewBox="0 0 1000 1000" enable-background="new 0 0 1000 1000" xml:space="preserve">
<g>
	<path fill="#FFFFFF" d="M1001.562,1003.13c-333.334,0-666.667,0-1000,0c0-333.854,0-667.708,0-1001.563c333.333,0,666.667,0,1000,0
		C1001.562,335.421,1001.562,669.275,1001.562,1003.13z M970.244,502.101c0.131-258.875-208.885-468.805-467.172-469.215
		C243.323,32.474,33.144,241.566,32.881,500.646c-0.264,259.59,209.092,469.508,468.345,469.603
		C760.342,970.345,970.112,760.962,970.244,502.101z"/>
	<path fill-rule="evenodd" clip-rule="evenodd" d="M970.244,502.101c-0.132,258.861-209.902,468.244-469.019,468.148
		C241.973,970.154,32.617,760.236,32.881,500.646c0.263-259.08,210.442-468.173,470.191-467.761
		C761.359,33.295,970.375,243.225,970.244,502.101z M918.158,502.114C918.66,272.176,733.086,86.09,502.109,84.919
		C272.985,83.758,85.453,270.824,84.967,501.022c-0.486,229.967,185.221,416.182,416.052,417.19
		C730.317,919.214,917.656,732.345,918.158,502.114z"/>
	<path fill-rule="evenodd" clip-rule="evenodd" fill="#FFFFFF" d="M918.158,502.114c-0.502,230.23-187.841,417.1-417.14,416.099
		C270.188,917.204,84.48,730.989,84.967,501.022C85.453,270.824,272.985,83.758,502.109,84.919
		C733.086,86.09,918.66,272.176,918.158,502.114z M428.861,301.302c1.016,0.216,2.031,0.433,3.047,0.65
		c2.419,5.598,5.283,11.049,7.179,16.82c7.469,22.72,9.711,46.284,9.787,70.008c0.292,92.179,0.301,184.359,0.415,276.539
		c0.004,3.051,0,6.1,0,9.416c13.163,0,25.5,0,38.568,0c0-3.551,0-6.616,0-9.681c0-74.734-0.021-149.469,0.053-224.203
		c0.005-4.386,0.271-8.893,1.283-13.137c7.753-32.576,19.389-63.672,37.296-92.088c7.391-11.726,16.033-22.662,24.105-33.958
		c0.905,0.191,1.812,0.381,2.718,0.571c2.669,6.077,5.807,11.996,7.922,18.26c7.848,23.234,9.096,47.362,9.09,71.632
		c-0.021,79.682-0.166,159.364,0.142,239.045c0.056,14.245,1.222,28.603,3.291,42.7c6.817,46.451,35.663,72.396,82.725,74.513
		c16.816,0.756,33.695,0.121,51.557,0.121c0,13.629,0,25.606,0,39.125c21.472-18.72,41.578-36.249,61.966-54.023
		c-20.635-18.531-40.765-36.61-62.376-56.02c0,14.54,0,26.698,0,39.49c-19.706-0.024-38.922,1.75-57.751-3.669
		c-21.172-6.094-34.641-19.513-38.479-41.511c-1.29-7.396-1.862-15.006-1.88-22.52c-0.187-81.765-0.111-163.529-0.32-245.293
		c-0.049-18.985-0.115-38.03-1.581-56.938c-2.148-27.704-11.585-53.162-27.016-76.338c-2.151-3.232-4.287-5.079-8.896-3.903
		c-9.546,2.435-19.371,3.756-28.976,5.993c-2.791,0.65-5.959,2.255-7.705,4.427c-17.689,22.006-32.489,45.766-42.709,72.217
		c-0.77,1.991-1.884,3.849-3.781,7.663c-1.697-9.214-2.838-16.267-4.313-23.25c-4.823-22.836-12.484-44.484-26.521-63.516
		c-2.505-3.395-4.824-4.541-9.126-3.476c-8.816,2.182-17.934,3.192-26.682,5.583c-3.922,1.071-8.096,3.585-10.716,6.668
		c-17.16,20.183-29.721,43.191-40.19,67.413c-0.736,1.701-1.713,3.299-3.406,6.52c-0.966-4.109-1.504-6.335-2.013-8.568
		c-5.358-23.474-13.481-45.859-26.464-66.268c-1.245-1.956-3.552-4.512-5.441-4.575c-12.349-0.411-24.718-0.211-38.131-0.211
		c3.696,5.88,6.87,10.563,9.678,15.455c15.383,26.801,22.511,56.089,22.69,86.589c0.568,96.605,0.25,193.215,0.273,289.821
		c0,3.042,0,6.083,0,9.209c13.466,0,26.023,0,38.998,0c0-3.718,0-6.815,0-9.912c0-78.38-0.02-156.76,0.061-235.14
		c0.004-3.839,0.106-7.985,1.484-11.465c9.067-22.903,17.174-46.332,28.235-68.257C405.613,332.657,418.082,317.406,428.861,301.302
		z"/>
	<path fill-rule="evenodd" clip-rule="evenodd" d="M428.861,301.302c-10.779,16.104-23.248,31.355-31.912,48.526
		c-11.061,21.926-19.168,45.354-28.235,68.257c-1.378,3.48-1.479,7.626-1.484,11.465c-0.08,78.38-0.061,156.76-0.061,235.14
		c0,3.097,0,6.194,0,9.912c-12.975,0-25.532,0-38.998,0c0-3.126,0-6.167,0-9.209c-0.024-96.606,0.295-193.216-0.273-289.821
		c-0.179-30.5-7.307-59.789-22.69-86.589c-2.808-4.892-5.982-9.575-9.678-15.455c13.413,0,25.783-0.199,38.131,0.211
		c1.889,0.063,4.196,2.619,5.441,4.575c12.983,20.409,21.106,42.794,26.464,66.268c0.509,2.232,1.047,4.458,2.013,8.568
		c1.693-3.221,2.67-4.819,3.406-6.52c10.469-24.221,23.03-47.23,40.19-67.413c2.621-3.083,6.794-5.597,10.716-6.668
		c8.749-2.391,17.866-3.4,26.682-5.583c4.302-1.065,6.622,0.081,9.126,3.476c14.037,19.032,21.698,40.68,26.521,63.516
		c1.475,6.983,2.616,14.037,4.313,23.25c1.897-3.814,3.011-5.672,3.781-7.663c10.22-26.451,25.02-50.21,42.709-72.217
		c1.746-2.172,4.914-3.777,7.705-4.427c9.604-2.236,19.43-3.558,28.976-5.993c4.609-1.176,6.745,0.67,8.896,3.903
		c15.431,23.177,24.867,48.635,27.016,76.338c1.466,18.908,1.532,37.953,1.581,56.938c0.209,81.764,0.134,163.529,0.32,245.293
		c0.018,7.514,0.59,15.124,1.88,22.52c3.839,21.998,17.308,35.417,38.479,41.511c18.829,5.419,38.045,3.645,57.751,3.669
		c0-12.792,0-24.95,0-39.49c21.611,19.409,41.741,37.488,62.376,56.02c-20.388,17.774-40.494,35.304-61.966,54.023
		c0-13.519,0-25.496,0-39.125c-17.861,0-34.74,0.635-51.557-0.121c-47.062-2.116-75.907-28.062-82.725-74.513
		c-2.069-14.098-3.235-28.455-3.291-42.7c-0.308-79.681-0.162-159.363-0.142-239.045c0.006-24.271-1.242-48.398-9.09-71.632
		c-2.115-6.264-5.253-12.183-7.922-18.26c-0.906-0.19-1.812-0.38-2.718-0.571c-8.072,11.295-16.715,22.232-24.105,33.958
		c-17.907,28.416-29.542,59.512-37.296,92.088c-1.011,4.244-1.278,8.751-1.283,13.137c-0.075,74.734-0.053,149.468-0.053,224.203
		c0,3.064,0,6.13,0,9.681c-13.068,0-25.405,0-38.568,0c0-3.316,0.003-6.365,0-9.416c-0.114-92.18-0.123-184.36-0.415-276.539
		c-0.076-23.724-2.318-47.288-9.787-70.008c-1.896-5.771-4.76-11.222-7.179-16.82C430.892,301.735,429.876,301.518,428.861,301.302z
		"/>
</g>
</svg>
