<svg xmlns="http://www.w3.org/2000/svg" viewBox="0 0 1024 1024"><defs><style>.cls-1{fill:none;stroke:#000;stroke-miterlimit:10;stroke-width:20px;}</style></defs><title>logo</title><g id="Layer_2" data-name="Layer 2"><g id="Layer_1-2" data-name="Layer 1"><path d="M1004,20v984H20V20h984m20-20H0V1024H1024V0Z"/><polygon points="1024 1024 830.95 1024 624.6 817.64 725.64 716.6 826.69 615.55 1024 820.78 1024 1024"/><rect class="cls-1" x="576.51" y="645.6" width="239.98" height="83.7" transform="translate(-282.1 693.83) rotate(-45)"/><circle class="cls-1" cx="644.07" cy="739.88" r="20" transform="translate(-169.53 191.89) rotate(-15)"/><g id="_3RkUcR.tif" data-name="3RkUcR.tif"><path d="M364.76,369.38c-26.22-9-48.74-16.88-71.38-24.42-35.48-11.81-64.09-29.91-66.71-72-.37-6-.2-12-.07-20.22a7.9,7.9,0,0,1,10-7.49l68.35,18.51c-14.59-21.13-21.92-40.16-13.11-62.69,10.69-27.33,19.62-30.08,40.28-10.34,15.65,15,31.5,29.71,47.26,44.55,1.85-2,3.11-2.76,3.57-3.88,16.7-40.49,26.58-43.09,53.85-10.79,30.18,35.74,58.25,73.26,87.81,109.55,8.33,10.21,17.38,20.78,28.29,27.76C584,377.85,599.36,410,619.48,438.6c27.25,38.74,54.36,77.59,82.46,115.71,6.57,8.92,17.64,14.41,25.14,22.82,5.24,5.88,7.93,14,11.75,21.19-8.11-1.3-18.94.26-23.86-4.41C696,576,677,557.5,661.69,536.49,632,495.57,604.75,452.84,576.58,410.8c-20-29.88-49.11-48-80.69-63.21-75.5-36.29-158.45-49.82-236.7-77.68-2.88-1-6.19-.86-9.39-1a2,2,0,0,0-2,1.94c-.27,25.72,6.08,35.82,30.69,45.26,64.21,24.63,128.6,48.76,197.61,57.16,6.09.74,11.35,8.19,17,12.53-6.47,1.83-13,5.47-19.4,5.16-26.26-1.27-52.65-2.41-78.6-6.21-19.36-2.83-32.27,5.58-44.34,17.9-6.69,6.83-11.72,15.56-19.12,21.39-29.88,23.54-26.86,55.49-24.94,88.27,19.35,3.33,28.75-3.53,32.65-22.4,8.19-39.6,36.22-65.16,72.43-63.15,16.13.89,31.34,13.34,47.72,16.21,34.34,6,37.06,36.83,50.1,59.53,1.75,3,.08,8.92-1.54,12.86C499.8,535.57,491.87,556,482,575.33c-3.29,6.46-11.65,13.81-18.31,14.47-24.85,2.48-50,4.06-74.92,2.67-21.25-1.18-37.95-12.9-50.32-31.26-10.57-15.69-25.28-23.64-47.38-13.08,13.51,22.43,22.35,50.52,41.48,65.34,21.45,16.63,51.57,27,79,30a692.37,692.37,0,0,1,188.25,48c4.5,1.83,9.16,4.67,12.1,8.36,1.53,1.92.23,9.33-1.13,9.73-5,1.48-11,2.59-15.78,1.1-37.43-11.65-74.18-25.84-112.11-35.44-30.66-7.77-62.58-10.9-94.1-14.92-49-6.26-80.64-34.1-100.47-77.75-3.71-8.15-8.51-15.8-12.45-23.86-5.69-11.67-13.07-23.05,5.8-31.46,3.94-1.75,5.57-13.56,4.78-20.33C279.15,444.13,313.52,404.54,364.76,369.38Zm-22.2,164.11c15.44,23.86,37.11,39.32,70.49,40.58,41,1.55,51.62-2.36,67.25-39.83,2.23-5.33,5.95-10.45,6.58-16,.88-7.73.88-16.07-1.11-23.52-7.32-27.37-31.83-33.92-54.06-43.34-30.55-12.94-64.49,4.94-72.57,37.47C355.58,503.25,348.88,516.82,342.56,533.49Zm64.79-240.65c.77-.94,1.55-1.88,2.32-2.83l-95.5-86.62c-9.29,19.57-9.84,28.47.86,40.33,17.77,19.69,34.83,40.91,64.89,42.78C389.16,287.08,398.21,290.64,407.35,292.84Zm5.1-70.34c-14.31,21.35-13.36,29.21,3,44.33,5.61,5.17,10.5,11.19,16.41,16,17.77,14.36,35.87,28.3,53.84,42.4l4.81-5.39Z"/></g></g></g></svg>