
<svg width="70px" height="70px" viewBox="0 0 70 70" version="1.1" xmlns="http://www.w3.org/2000/svg" xmlns:xlink="http://www.w3.org/1999/xlink">
    <!-- Generator: Sketch 49.3 (51167) - http://www.bohemiancoding.com/sketch -->
    <desc>Created with Sketch.</desc>
    <defs></defs>
    <g id="Welcome" stroke="none" stroke-width="1" fill="none" fill-rule="evenodd">
        <g id="Desktop-HD" transform="translate(-685.000000, -2396.000000)" fill="#0E1720" fill-rule="nonzero">
            <g id="E3" transform="translate(0.000000, 2048.000000)">
                <g id="Design" transform="translate(523.000000, 348.000000)">
                    <g id="pencil" transform="translate(162.000000, 0.000000)">
                        <path d="M66.228852,3.766875 C63.8051676,1.3365625 60.5721301,0 57.1400355,0 C53.7079408,0 50.4792782,1.334375 48.0534063,3.7625 L9.39476483,42.1990625 C9.16508355,42.4265625 8.99008828,42.7 8.88071624,43.001875 L0.130952988,67.064375 C-0.151226877,67.8409375 0.0303307107,68.718125 0.601252763,69.3196875 C1.0212414,69.7615625 1.59653833,70 2.18933479,70 C2.40370399,70 2.61807319,69.969375 2.83025495,69.90375 L24.5931036,63.2275 C24.9343444,63.1246875 25.244961,62.9365625 25.4987041,62.685 L66.2310395,21.9515625 C68.6634737,19.525625 70,16.2925 70,12.858125 C69.9978126,9.4259375 68.6634737,6.195 66.228852,3.766875 Z M22.0775467,59.4234375 L13.9315171,61.9259375 C13.4568424,60.5325 12.7174874,59.29875 11.7090772,58.2903125 C10.8319134,57.4175 9.81475347,56.739375 8.74290747,56.188125 L12.4703066,45.9375 L17.5014205,45.9375 L17.5014205,50.3125 C17.5014205,51.5221875 18.4792065,52.5 19.6888613,52.5 L23.5496943,52.5 L22.0775467,59.4234375 Z M54.2766754,27.7178125 L27.6248966,54.3703125 L28.3905009,50.7675 C28.5261222,50.12 28.3642516,49.4484375 27.9486378,48.9365625 C27.5330241,48.4225 26.9096034,48.125 26.2511837,48.125 L21.8763021,48.125 L21.8763021,43.75 C21.8763021,42.5425 20.8963286,41.5625 19.6888613,41.5625 L16.2370797,41.5625 L42.2523133,15.6953125 L42.2785626,15.719375 C43.8797693,14.1159375 46.012524,13.234375 48.2765253,13.234375 C50.5405265,13.234375 52.6754688,14.1159375 54.274488,15.719375 C55.8735072,17.3228125 56.7637956,19.4534375 56.7637956,21.7196875 C56.7637956,23.9859375 55.882257,26.114375 54.2766754,27.7178125 Z M63.1358107,18.8584375 L61.0971159,20.899375 C60.9002462,17.7734375 59.6030938,14.8596875 57.3719042,12.62625 C55.1385271,10.390625 52.2226685,9.095625 49.0880658,8.9009375 L51.1398853,6.864375 L51.1442602,6.86 C52.741092,5.2565625 54.8738468,4.375 57.1400355,4.375 C59.4062241,4.375 61.5367915,5.2565625 63.1358107,6.86 C64.7413923,8.4634375 65.6251184,10.5940625 65.6251184,12.858125 C65.6251184,15.1265625 64.7457672,17.2571875 63.1358107,18.8584375 Z M48.766512,18.1409375 L26.8921039,40.0159375 C26.0368145,40.87125 26.0368145,42.25375 26.8921039,43.1090625 C27.3164674,43.535625 27.8786397,43.75 28.4386246,43.75 C28.9986094,43.75 29.5564068,43.535625 29.9851452,43.1090625 L51.8595533,21.2340625 C52.7148427,20.37875 52.7148427,18.99625 51.8595533,18.1409375 C51.0020765,17.285625 49.6218014,17.285625 48.766512,18.1409375 Z" id="Shape"></path>
                    </g>
                </g>
            </g>
        </g>
    </g>
</svg>