<?xml version="1.0" encoding="utf-8"?>
<!-- Generator: Adobe Illustrator 16.0.0, SVG Export Plug-In . SVG Version: 6.00 Build 0)  -->
<!DOCTYPE svg PUBLIC "-//W3C//DTD SVG 1.1//EN" "http://www.w3.org/Graphics/SVG/1.1/DTD/svg11.dtd">
<svg version="1.1" id="Layer_1" xmlns="http://www.w3.org/2000/svg" xmlns:xlink="http://www.w3.org/1999/xlink" x="0px" y="0px"
	 width="500px" height="500px" viewBox="0 0 500 500" enable-background="new 0 0 500 500" xml:space="preserve">
<g>
	<path fill-rule="evenodd" clip-rule="evenodd" fill="#EFEFEF" d="M493.047,273.523c0,29.462,0.007,58.923-0.005,88.385
		c-0.007,13.141-6.732,19.826-19.98,19.831c-40.658,0.013-81.313,0.016-121.972-0.002c-12.971-0.006-19.976-6.885-19.99-20.011
		c-0.063-58.727-0.057-117.453-0.007-176.179c0.012-13.287,7.13-20.282,20.47-20.294c40.461-0.036,80.923-0.038,121.381,0.001
		c13.399,0.014,20.094,6.898,20.099,20.474C493.054,214.993,493.047,244.259,493.047,273.523z M481.402,181.504
		c-46.506,0-92.496,0-138.606,0c0,55.098,0,109.759,0,164.717c46.296,0,92.296,0,138.606,0
		C481.402,291.262,481.402,236.603,481.402,181.504z M395.644,363.188c-0.073-4.502-3.733-8.13-8.25-8.175
		c-4.601-0.046-8.598,4.078-8.4,8.672c0.187,4.417,4.007,7.864,8.607,7.771C392.147,371.363,395.716,367.694,395.644,363.188z
		 M412.049,371.455c4.669,0.069,8.244-3.312,8.357-7.903c0.12-4.747-3.707-8.62-8.438-8.537c-4.38,0.075-8.222,3.982-8.168,8.307
		C403.855,367.848,407.445,371.386,412.049,371.455z M445.16,362.997c-0.127-4.532-3.877-8.12-8.344-7.985
		c-4.507,0.139-8.259,3.894-8.257,8.261c0.002,4.632,4.067,8.392,8.84,8.178C442.081,371.239,445.292,367.74,445.16,362.997z"/>
	<path fill-rule="evenodd" clip-rule="evenodd" fill="#EFEFEF" d="M392.334,151.274c-7.361,0-13.959,0-21.164,0
		c0-10.133,0-20.232,0-30.796c-103.96,0-207.318,0-311.255,0c0,33.51,0,67.186,0,101.352c-7.294,0-14.026,0-21.422,0
		c-0.118-2.018-0.342-4.083-0.344-6.15c-0.021-33.579-0.029-67.157-0.008-100.736c0.008-11.519,5.33-16.869,16.894-16.87
		c106.627-0.019,213.254-0.018,319.88-0.002c11.967,0.002,17.344,5.304,17.405,17.14
		C392.383,127.126,392.334,139.042,392.334,151.274z"/>
	<path fill-rule="evenodd" clip-rule="evenodd" fill="#EFEFEF" d="M317.033,332.097c-70.924,0-141.223,0-211.997,0
		c0-13.906,0-27.724,0-42.06c70.469,0,141.031,0,211.997,0C317.033,303.911,317.033,317.74,317.033,332.097z M214.913,301.519
		c-5.153,0.126-9.236,4.312-9.189,9.422c0.044,4.87,4.553,9.42,9.367,9.453c4.96,0.032,9.792-4.989,9.571-9.947
		C224.438,305.456,220.004,301.395,214.913,301.519z"/>
	<path fill-rule="evenodd" clip-rule="evenodd" fill="#EFEFEF" d="M6.961,313.223c-0.001-20.814-0.023-41.631,0.009-62.446
		c0.015-9.377,4.383-14.507,13.775-14.685c18.649-0.352,37.312-0.32,55.962-0.027c9.345,0.146,13.848,5.107,13.868,14.614
		c0.086,41.828,0.082,83.656,0.008,125.483c-0.019,10.089-4.751,14.642-14.936,14.678c-18.066,0.065-36.134,0.079-54.199-0.007
		c-9.611-0.045-14.455-4.973-14.475-14.572C6.931,355.247,6.961,334.235,6.961,313.223z M15.608,263.024
		c0,34.291,0,68.111,0,102.055c22.315,0,44.208,0,66.441,0c0-34.113,0-67.925,0-102.055
		C59.896,263.024,37.998,263.024,15.608,263.024z M53.522,378.607c0.599-3.455-0.938-3.05-0.907-3.956
		c-1.195-1.682-4.417-2.51-4.417-2.51c-2.214,0.316-5.021,2.78-5.382,5.036c-0.256,1.6,3.164,5.178,5.184,5.371
		C50.151,382.754,53.619,380.071,53.522,378.607z"/>
	<path fill-rule="evenodd" clip-rule="evenodd" fill="#EFEFEF" d="M270.511,381.057c-37.427,0-73.241,0-110.74,0
		c2.217-2.599,3.128-4.454,4.613-5.284c9.525-5.327,12.434-14.218,13.001-24.17c0.244-4.293,1.655-5.643,5.988-5.6
		c21.176,0.205,42.355,0.164,63.532,0.027c3.774-0.025,5.844,0.785,6.002,5.024c0.393,10.49,3.605,19.561,13.462,25.092
		C267.601,376.838,268.335,378.419,270.511,381.057z"/>
</g>
</svg>
