<?xml version="1.0" encoding="utf-8"?>
<!-- Generator: Adobe Illustrator 16.0.0, SVG Export Plug-In . SVG Version: 6.00 Build 0)  -->
<!DOCTYPE svg PUBLIC "-//W3C//DTD SVG 1.1//EN" "http://www.w3.org/Graphics/SVG/1.1/DTD/svg11.dtd">
<svg version="1.1" id="Layer_1" xmlns="http://www.w3.org/2000/svg" xmlns:xlink="http://www.w3.org/1999/xlink" x="0px" y="0px"
	 width="500px" height="500px" viewBox="0 0 500 500" enable-background="new 0 0 500 500" xml:space="preserve">
<g>
	<path fill-rule="evenodd" clip-rule="evenodd" fill="#EFEFEF" d="M225.651,283.811c3.315-2.425,6.678-2.594,10.115-1.472
		c5.444,1.776,7.035,4.843,5.562,10.571c-2.792,10.853-5.777,21.658-8.417,32.549c-1.995,8.229-4.463,16.415-4.239,25.027
		c0.04,1.539-0.823,3.938,0.891,4.407c1.741,0.479,2.254-1.98,2.989-3.347c7.288-13.53,13.381-27.634,19.576-41.687
		c7.378-16.736,14.726-33.486,22.111-50.22c2.606-5.904,4.52-12.046,5.75-18.357c0.646-3.314,2.578-4.898,5.453-5.723
		c6.442-1.847,13.04-1.892,19.642-1.368c1.344,0.107,2.688,0.808,3.932,1.438c2.355,1.192,3.146,2.942,2.174,5.657
		c-2.486,6.958-5.023,13.946-5.552,21.406c-0.859,12.131,1.254,23.607,8.09,34.435c1.634-2.71,3.174-5.161,4.612-7.671
		c7.959-13.881,15.912-27.762,22.599-42.341c2.345-5.113,3.818-10.468,4.662-15.934c1.214-7.863,5.643-11.481,13.266-11.883
		c4.861-0.256,9.73-0.797,14.548,0.21c4.92,1.03,6.107,3.202,4.631,7.94c-2.066,6.636-4.648,13.153-5.14,20.18
		c-0.836,11.933,1.307,23.229,7.408,33.625c1.366,2.327,1.702,5.899,4.04,6.822c2.183,0.86,4.644-1.688,7.045-2.581
		c23.295-8.66,46.853-10.649,70.333-1.367c18.281,7.228,31.487,19.81,36.17,39.812c3.964,16.94-4.354,33.049-20.241,39.725
		c-0.199,0.084-0.398,0.199-0.608,0.225c-1.992,0.243-4.513,2.194-5.796-0.431c-1.294-2.646,1.669-3.294,3.25-4.391
		c6.504-4.515,11.9-9.911,13.402-18.103c1.811-9.871-1.801-18.25-7.864-25.637c-9.508-11.581-22.571-16.533-36.739-18.896
		c-15.752-2.626-31.436-2.412-46.877,2.352c-6.453,1.991-6.69,1.952-4.687,8.355c4.908,15.69,1.134,28.678-11.245,39.354
		c-6.33,5.459-13.269,9.758-21.096,12.585c-2.746,0.991-5.518,1.97-8.347,2.657c-9.024,2.193-15.858-3.223-15.687-12.578
		c0.177-9.595,3.966-17.999,9.169-25.818c4.727-7.102,10.212-13.582,16.785-18.993c2.607-2.145,2.913-3.938,1.285-6.832
		c-5.774-10.26-8.849-21.49-11.169-32.964c-0.147-0.728-0.413-1.434-0.796-2.734c-1.856,3.505-3.491,6.526-5.064,9.58
		c-6.946,13.467-14.69,26.455-23.273,38.922c-1.145,1.661-1.164,2.934-0.391,4.736c2.763,6.447,4.625,13.202,4.761,20.237
		c0.259,13.359-5.354,23.859-16.303,31.269c-11.668,7.896-24.413,12.416-38.725,11.68c-3.851-0.199-7.071-1.317-8.953-4.788
		c-1.913-3.529-0.428-6.898,1.489-9.837c4.345-6.666,9.688-12.561,14.77-18.655c5.984-7.181,12.01-14.318,17.519-21.896
		c1.775-2.444,2.076-4.234,0.609-6.896c-6.723-12.187-11.121-25.224-13.44-40.021c-2.309,5.535-4.309,10.174-6.188,14.861
		c-10.888,27.147-24.146,53.125-38.529,78.517c-3.292,5.811-7.46,11.243-13.683,14.521c-5.757,3.034-12.134,1.321-15.419-4.345
		c-2.693-4.647-3.466-9.824-3.797-15.068c-0.178-2.826-0.11-5.677,0.003-8.512c0.107-2.706,0.418-5.405,0.142-8.297
		c-1.156,2.676-2.293,5.358-3.469,8.023c-4.09,9.263-8.052,18.589-13.562,27.131c-4.951,7.675-11.68,10.93-20.784,8.938
		c-4.636-1.015-7.551-4.088-10.049-7.713c-6.249-9.066-9.341-19.348-10.799-30.144c-2.008-14.871,0.812-29.266,4.686-43.521
		c0.252-0.929,0.544-1.847,0.809-2.742c-0.93-0.799-1.452-0.033-2.063,0.322c-7.782,4.516-15.544,9.065-23.365,13.512
		c-1.729,0.982-2.079,1.779-1.221,3.789c4.892,11.46,6.033,23.481,5.067,35.844c-1.037,13.269-4.3,25.916-11.423,37.105
		c-16.313,25.629-39.242,39.952-70.054,39.896c-5.089-0.01-10.123-0.933-15.008-2.325c-7.227-2.061-11.521-7.572-14.604-13.98
		c-5.942-12.352-5.027-24.925-0.419-37.459c4.853-13.198,14.484-22.57,24.952-31.174c14.828-12.185,31.201-21.939,48.25-30.591
		c5.053-2.564,5.081-2.64,0.661-6.145c-11.147-8.838-23.132-16.49-34.657-24.795c-13.488-9.719-26.627-19.856-37.846-32.264
		c-9.363-10.355-16.704-21.855-20.217-35.666c-2.446-9.615-0.252-18.619,2.73-27.531c4.989-14.9,13.61-27.667,23.73-39.454
		c18.703-21.783,41.407-38.501,66.048-52.741c23.058-13.326,47.248-24.126,72.475-32.503c13.158-4.37,26.707-7.01,40.499-8.666
		c9.727-1.168,19.444-1.595,29.142-0.916c19.148,1.342,37.729,5.148,54.163,15.923c18.596,12.19,26.178,29.719,24.128,51.746
		c-2.385,25.642-15.138,45.96-32.586,63.721c-17.01,17.314-37.716,28.138-60.88,34.624c-14.878,4.165-29.969,6.782-45.387,6.955
		c-16.183,0.183-32.038-1.479-45.737-11.526c-6.217-4.56-11.653-9.773-13.911-17.522c-0.27-0.924-0.498-1.945-0.392-2.879
		c0.264-2.302,2.394-3.244,4.21-1.799c1.512,1.203,2.74,2.763,4.164,4.089c7.263,6.762,16.166,9.911,25.661,11.651
		c12.12,2.221,24.131,0.84,36.078-1.431c24.973-4.747,47.727-14.62,67.558-30.739c14.784-12.019,27.018-26.195,32.585-44.985
		c3.408-11.501,3.637-22.949-4.932-32.66c-5.591-6.337-13.257-9.274-21.146-11.477c-14.725-4.113-29.743-4.047-44.761-2.462
		c-17.505,1.847-34.438,6.363-50.894,12.537c-15.625,5.862-30.569,13.273-45.107,21.495c-16.527,9.347-32.545,19.484-46.817,32.146
		c-12.261,10.879-23.233,22.859-29.534,38.403c-7.787,19.21-5.588,37.034,7.468,53.339c9.196,11.482,20.698,20.376,32.117,29.365
		c11.242,8.851,22.804,17.314,32.705,27.768c1.106,1.167,2.128,1.406,3.688,0.538c14.967-8.321,29.971-16.575,44.996-24.788
		c3.892-2.128,5.726-6.138,8.608-9.184c8.229-8.697,17.237-16.247,28.554-20.521c4.291-1.622,8.749-2.691,13.343-1.531
		c7.965,2.012,12.125,8.269,12.418,18.451C226.157,275.429,225.97,279.547,225.651,283.811z M110.483,350.95
		c0.354-4.55-0.677-9.573-1.498-14.623c-0.391-2.405-1.146-3.062-3.512-1.617c-12.305,7.513-24.47,15.213-35.616,24.441
		c-7.566,6.265-14.595,12.991-19.249,21.852c-3.384,6.444-5.612,13.157-5.292,20.608c0.301,7.011,4.269,11.103,11.158,11.36
		c4.283,0.159,8.439-0.465,12.424-1.89C92.353,402.69,111.215,377.493,110.483,350.95z M211.004,277.904
		c0.12-3.546-1.724-5.071-4.983-4.286c-7.171,1.729-12.171,6.588-16.277,12.294c-7.087,9.851-12.713,20.564-15.933,32.331
		c-3.481,12.721-4.892,25.645-1.753,38.727c0.385,1.608,0.933,3.127,1.842,4.497c1.626,2.449,3.132,2.638,5.289,0.614
		c2.676-2.511,4.237-5.791,5.739-9.04c7.857-17.007,14.346-34.562,20.286-52.323C207.733,293.184,210.075,285.581,211.004,277.904z
		 M353.747,335.398c-1.538,3.562-3.259,7.126-3.561,11.132c-0.176,2.333,0.605,2.825,2.793,2.029
		c11.188-4.072,18.006-13.714,18.041-25.95c-0.079-1.808-0.004-3.853-0.481-5.916c-0.562-2.429-1.242-2.604-3.057-0.913
		 M303.929,336.827c-1.14,0.089-1.386,0.771-1.756,1.265c-6.521,8.7-13.737,16.802-20.998,24.868
		c-0.7,0.778-2.453,1.517-1.396,2.792c0.837,1.011,2.278,0.013,3.251-0.533c7.29-4.092,13.531-9.36,17.782-16.728
		C302.853,344.955,304,341.136,303.929,336.827z"/>
</g>
</svg>
